<?xml version="1.0" encoding="UTF-8"?><svg id="Capa_2" xmlns="http://www.w3.org/2000/svg" viewBox="0 0 715.75 195.62"><defs><style>.cls-1{fill:#0095da;}.cls-2{fill:#fff;}.cls-3{fill:#57c6d0;}.cls-4{fill:#231f20;}</style></defs><g id="Capa_1-2"><g><g><g><rect class="cls-3" x="166.28" y="0" width="58.69" height="195.62" rx="29.08" ry="29.08"/><g><rect class="cls-1" x="68.47" y="0" width="58.69" height="195.62" rx="29.01" ry="29.01"/><rect class="cls-1" x="68.47" y="0" width="58.69" height="195.62" rx="29.34" ry="29.34" transform="translate(195.62 0) rotate(90)"/></g></g><g><circle class="cls-2" cx="195.62" cy="25.97" r="3.42"/><circle class="cls-2" cx="180.35" cy="25.97" r="3.42"/><circle class="cls-2" cx="180.35" cy="41.25" r="3.42"/><circle class="cls-2" cx="180.35" cy="56.49" r="3.42"/><circle class="cls-2" cx="195.62" cy="56.49" r="3.42"/><circle class="cls-2" cx="210.89" cy="56.49" r="3.42"/><circle class="cls-2" cx="195.62" cy="41.25" r="3.42"/><circle class="cls-2" cx="210.89" cy="41.25" r="3.42"/><circle class="cls-2" cx="210.89" cy="25.97" r="3.42"/></g><g><circle class="cls-2" cx="195.62" cy="138.27" r="3.42"/><circle class="cls-2" cx="180.35" cy="138.27" r="3.42"/><circle class="cls-2" cx="180.35" cy="153.55" r="3.42"/><circle class="cls-2" cx="180.35" cy="168.79" r="3.42"/><circle class="cls-2" cx="195.62" cy="168.79" r="3.42"/><circle class="cls-2" cx="210.89" cy="168.79" r="3.42"/><circle class="cls-2" cx="195.62" cy="153.55" r="3.42"/><circle class="cls-2" cx="210.89" cy="153.55" r="3.42"/><circle class="cls-2" cx="210.89" cy="138.27" r="3.42"/></g></g><g><g><path class="cls-4" d="M283.09,102.44V28.85h28.47c12.36,0,21.62,3.67,27.77,11s9.22,15.82,9.22,25.45c0,11-3.3,19.94-9.89,26.82-6.6,6.88-15.16,10.32-25.69,10.32h-29.87Zm22.59-16.93h5.88c3.74,0,6.89-1.81,9.46-5.45,2.57-3.63,3.85-8.57,3.85-14.83,0-5.35-1.14-9.97-3.42-13.86-2.28-3.88-5.58-5.82-9.89-5.82h-5.88v39.95Z"/><path class="cls-4" d="M377.93,102.44h-20.6V47.61h17.9v11.32c2.05-8.23,6.81-12.35,14.29-12.35,.75,0,1.8,.07,3.13,.22v19.14c-1.51-.36-2.86-.54-4.04-.54-7.12,0-10.67,3.97-10.67,11.91v25.12Z"/><path class="cls-4" d="M415.62,82.76v19.68h-20.49v-19.68h20.49Z"/><path class="cls-4" d="M517.03,28.85V102.44h-22.59v-28.63h-17.25v28.63h-22.59V28.85h22.59v27.06h17.25V28.85h22.59Z"/><path class="cls-4" d="M555.85,103.57c-9.09,0-16.32-2.83-21.67-8.49-5.36-5.66-8.03-12.3-8.03-19.92,0-8.19,2.79-15.02,8.38-20.49,5.59-5.46,12.86-8.19,21.81-8.19s16.27,2.7,21.75,8.09c5.48,5.39,8.22,12.15,8.22,20.27s-2.78,15.03-8.33,20.51c-5.55,5.48-12.93,8.22-22.13,8.22Zm.32-13.05c3.34,0,5.38-1.73,6.12-5.2,.74-3.47,1.11-7.09,1.11-10.86,0-5.14-.52-8.84-1.56-11.11-1.04-2.26-2.91-3.4-5.61-3.4-2.48,0-4.3,1.17-5.45,3.5-1.15,2.34-1.73,6.18-1.73,11.54,0,6.29,.59,10.45,1.78,12.48,1.19,2.03,2.97,3.05,5.34,3.05Z"/><path class="cls-4" d="M616.18,119.75h-21.51V47.61h19.79v7.76c2.77-5.93,7.93-8.9,15.47-8.9,6.54,0,11.66,2.54,15.37,7.63,3.7,5.09,5.55,12.01,5.55,20.78s-1.9,15.74-5.69,20.92c-3.79,5.18-8.8,7.76-15.02,7.76s-10.77-2.34-13.96-7.01v23.18Zm0-37.36c0,2.44,.56,4.34,1.67,5.69,1.11,1.35,2.5,2.02,4.15,2.02,2.59,0,4.37-1.19,5.34-3.59,.97-2.39,1.46-6.07,1.46-11.03,0-5.71-.56-9.73-1.67-12.05-1.11-2.32-2.79-3.48-5.01-3.48-1.33,0-2.65,.52-3.96,1.56-1.31,1.04-1.97,2.75-1.97,5.12v15.74Z"/><path class="cls-4" d="M695.64,82.76l20.06,1.35c-1.19,5.39-4.21,9.98-9.08,13.77-4.87,3.79-11.46,5.69-19.76,5.69-9.24,0-16.61-2.67-22.1-8.01s-8.25-11.96-8.25-19.87,2.71-15.11,8.14-20.76c5.43-5.64,12.67-8.46,21.73-8.46s15.86,2.66,21.27,7.98c5.41,5.32,8.11,12.56,8.11,21.73,0,.75-.02,1.8-.05,3.13h-36.72c.07,3.45,.68,6.01,1.83,7.68,1.15,1.67,3.34,2.51,6.58,2.51,4.67,0,7.42-2.25,8.25-6.74Zm-1.46-14.23c-.04-3.7-.78-6.19-2.23-7.47-1.45-1.28-3.25-1.91-5.4-1.91-5.09,0-7.63,3.13-7.63,9.38h15.26Z"/></g><g><path class="cls-4" d="M293.41,166.31v-26.93h5.36l6.37,19.07c.59,1.78,1.02,3.11,1.29,3.99,.31-.98,.78-2.42,1.43-4.32l6.45-18.74h4.79v26.93h-3.44v-22.54l-7.83,22.54h-3.22l-7.79-22.93v22.93h-3.43Z"/><path class="cls-4" d="M324.93,166.31v-26.93h19.47v3.18h-15.91v8.25h14.9v3.16h-14.9v9.17h16.53v3.18h-20.1Zm7.35-28.59l2.44-5.14h4.34l-4.04,5.14h-2.74Z"/><path class="cls-4" d="M349.95,166.31v-26.93h9.28c2.09,0,3.69,.13,4.79,.39,1.54,.36,2.86,1,3.95,1.93,1.42,1.2,2.48,2.73,3.19,4.6,.7,1.87,1.06,4,1.06,6.4,0,2.05-.24,3.86-.72,5.44-.48,1.58-1.09,2.89-1.84,3.92-.75,1.04-1.56,1.85-2.45,2.44-.89,.59-1.96,1.04-3.22,1.35s-2.7,.46-4.33,.46h-9.72Zm3.56-3.18h5.75c1.78,0,3.17-.17,4.18-.5,1.01-.33,1.82-.8,2.42-1.4,.85-.85,1.5-1.98,1.98-3.41,.47-1.43,.71-3.16,.71-5.19,0-2.82-.46-4.98-1.39-6.49-.92-1.51-2.05-2.53-3.37-3.04-.96-.37-2.49-.55-4.61-.55h-5.66v20.58Z"/><path class="cls-4" d="M377.73,166.31v-26.93h3.56v26.93h-3.56Z"/><path class="cls-4" d="M406.8,156.87l3.56,.9c-.75,2.93-2.09,5.16-4.03,6.7-1.94,1.54-4.31,2.31-7.12,2.31s-5.26-.59-7.08-1.77c-1.82-1.18-3.2-2.89-4.15-5.13-.95-2.24-1.42-4.65-1.42-7.22,0-2.8,.54-5.25,1.61-7.34,1.07-2.09,2.6-3.67,4.57-4.76,1.98-1.08,4.15-1.63,6.53-1.63,2.69,0,4.96,.69,6.8,2.06,1.84,1.37,3.12,3.3,3.84,5.79l-3.51,.83c-.62-1.96-1.53-3.39-2.72-4.28-1.19-.89-2.68-1.34-4.48-1.34-2.07,0-3.8,.5-5.19,1.49-1.39,.99-2.37,2.32-2.93,4-.56,1.67-.85,3.4-.85,5.17,0,2.29,.33,4.29,1,6,.67,1.71,1.71,2.99,3.11,3.83s2.93,1.27,4.57,1.27c2,0,3.69-.58,5.07-1.73s2.32-2.86,2.81-5.13Z"/><path class="cls-4" d="M413.67,153.19c0-4.47,1.2-7.97,3.6-10.5,2.4-2.53,5.5-3.79,9.3-3.79,2.49,0,4.73,.59,6.73,1.78,2,1.19,3.52,2.84,4.57,4.97,1.05,2.12,1.57,4.53,1.57,7.23s-.55,5.17-1.65,7.33c-1.1,2.16-2.66,3.79-4.69,4.9-2.02,1.11-4.2,1.66-6.54,1.66-2.54,0-4.8-.61-6.8-1.84-2-1.23-3.51-2.9-4.54-5.02-1.03-2.12-1.54-4.36-1.54-6.72Zm3.68,.06c0,3.25,.87,5.8,2.62,7.67,1.75,1.87,3.93,2.8,6.57,2.8s4.89-.94,6.62-2.83c1.73-1.89,2.6-4.56,2.6-8.03,0-2.19-.37-4.11-1.11-5.74-.74-1.63-1.83-2.9-3.25-3.8-1.43-.9-3.03-1.35-4.8-1.35-2.52,0-4.69,.87-6.51,2.6-1.82,1.73-2.73,4.63-2.73,8.68Z"/><path class="cls-4" d="M442.81,157.66l3.36-.29c.16,1.35,.53,2.45,1.11,3.32,.58,.86,1.49,1.56,2.71,2.09,1.22,.53,2.6,.8,4.13,.8,1.36,0,2.56-.2,3.6-.61,1.04-.4,1.82-.96,2.32-1.66,.51-.7,.76-1.47,.76-2.31s-.25-1.58-.73-2.21c-.49-.63-1.3-1.16-2.43-1.59-.72-.28-2.32-.72-4.79-1.31-2.47-.59-4.21-1.15-5.2-1.68-1.29-.67-2.24-1.51-2.87-2.51-.63-1-.95-2.11-.95-3.35,0-1.36,.39-2.63,1.16-3.81,.77-1.18,1.9-2.08,3.38-2.69,1.48-.61,3.13-.92,4.94-.92,2,0,3.76,.32,5.28,.97,1.53,.64,2.7,1.59,3.52,2.84,.82,1.25,1.26,2.66,1.32,4.24l-3.42,.26c-.18-1.7-.81-2.99-1.87-3.86-1.06-.87-2.62-1.3-4.69-1.3s-3.73,.39-4.71,1.18c-.99,.79-1.48,1.74-1.48,2.86,0,.97,.35,1.76,1.05,2.39,.69,.63,2.48,1.27,5.37,1.92s4.88,1.23,5.96,1.72c1.57,.72,2.73,1.64,3.47,2.75,.75,1.11,1.12,2.39,1.12,3.83s-.41,2.78-1.23,4.05c-.82,1.27-2,2.25-3.54,2.96-1.54,.7-3.27,1.06-5.19,1.06-2.44,0-4.48-.36-6.13-1.07s-2.94-1.78-3.88-3.21c-.94-1.43-1.43-3.04-1.48-4.84Z"/><path class="cls-4" d="M474.53,166.31l10.34-26.93h3.84l11.02,26.93h-4.06l-3.14-8.16h-11.26l-2.96,8.16h-3.78Zm7.77-11.06h9.13l-2.81-7.46c-.86-2.27-1.49-4.13-1.91-5.59-.34,1.73-.83,3.44-1.45,5.14l-2.96,7.9Z"/><path class="cls-4" d="M510.97,166.31v-26.93h9.28c2.09,0,3.69,.13,4.8,.39,1.54,.36,2.86,1,3.95,1.93,1.42,1.2,2.48,2.73,3.19,4.6,.7,1.87,1.06,4,1.06,6.4,0,2.05-.24,3.86-.72,5.44-.48,1.58-1.09,2.89-1.84,3.92s-1.56,1.85-2.45,2.44c-.89,.59-1.96,1.04-3.21,1.35s-2.7,.46-4.33,.46h-9.72Zm3.56-3.18h5.75c1.78,0,3.17-.17,4.18-.5s1.82-.8,2.42-1.4c.85-.85,1.5-1.98,1.97-3.41,.47-1.43,.71-3.16,.71-5.19,0-2.82-.46-4.98-1.39-6.49-.93-1.51-2.05-2.53-3.37-3.04-.95-.37-2.49-.55-4.61-.55h-5.66v20.58Z"/><path class="cls-4" d="M537.05,153.19c0-4.47,1.2-7.97,3.6-10.5,2.4-2.53,5.5-3.79,9.3-3.79,2.49,0,4.73,.59,6.72,1.78,2,1.19,3.52,2.84,4.57,4.97,1.05,2.12,1.57,4.53,1.57,7.23s-.55,5.17-1.65,7.33c-1.1,2.16-2.66,3.79-4.69,4.9-2.02,1.11-4.2,1.66-6.54,1.66-2.54,0-4.8-.61-6.8-1.84-2-1.23-3.51-2.9-4.54-5.02-1.03-2.12-1.54-4.36-1.54-6.72Zm3.68,.06c0,3.25,.87,5.8,2.62,7.67,1.75,1.87,3.93,2.8,6.57,2.8s4.89-.94,6.62-2.83c1.73-1.89,2.6-4.56,2.6-8.03,0-2.19-.37-4.11-1.11-5.74-.74-1.63-1.83-2.9-3.25-3.8-1.43-.9-3.03-1.35-4.8-1.35-2.52,0-4.69,.87-6.51,2.6-1.82,1.73-2.73,4.63-2.73,8.68Z"/><path class="cls-4" d="M567.29,166.31v-26.93h5.36l6.38,19.07c.59,1.78,1.02,3.11,1.29,3.99,.31-.98,.78-2.42,1.43-4.32l6.45-18.74h4.8v26.93h-3.44v-22.54l-7.83,22.54h-3.21l-7.79-22.93v22.93h-3.44Z"/><path class="cls-4" d="M599.35,166.31v-26.93h3.57v26.93h-3.57Z"/><path class="cls-4" d="M628.42,156.87l3.56,.9c-.75,2.93-2.09,5.16-4.03,6.7-1.94,1.54-4.31,2.31-7.12,2.31s-5.26-.59-7.08-1.77c-1.82-1.18-3.2-2.89-4.15-5.13-.95-2.24-1.42-4.65-1.42-7.22,0-2.8,.54-5.25,1.61-7.34,1.07-2.09,2.6-3.67,4.57-4.76,1.98-1.08,4.16-1.63,6.53-1.63,2.69,0,4.96,.69,6.8,2.06,1.84,1.37,3.12,3.3,3.84,5.79l-3.51,.83c-.62-1.96-1.53-3.39-2.72-4.28-1.19-.89-2.68-1.34-4.48-1.34-2.07,0-3.8,.5-5.19,1.49-1.39,.99-2.37,2.32-2.93,4-.56,1.67-.85,3.4-.85,5.17,0,2.29,.33,4.29,1,6,.67,1.71,1.71,2.99,3.11,3.83,1.41,.85,2.93,1.27,4.57,1.27,2,0,3.69-.58,5.07-1.73,1.38-1.15,2.32-2.86,2.81-5.13Z"/><path class="cls-4" d="M636.98,166.31v-26.93h3.57v26.93h-3.57Z"/><path class="cls-4" d="M646.68,166.31v-26.93h3.56v23.75h13.26v3.18h-16.83Z"/><path class="cls-4" d="M668.36,166.31v-26.93h3.57v26.93h-3.57Z"/><path class="cls-4" d="M677.12,153.19c0-4.47,1.2-7.97,3.6-10.5,2.4-2.53,5.5-3.79,9.3-3.79,2.49,0,4.73,.59,6.72,1.78,2,1.19,3.52,2.84,4.57,4.97,1.05,2.12,1.57,4.53,1.57,7.23s-.55,5.17-1.65,7.33c-1.1,2.16-2.66,3.79-4.69,4.9-2.02,1.11-4.2,1.66-6.54,1.66-2.54,0-4.8-.61-6.8-1.84-2-1.23-3.51-2.9-4.54-5.02-1.03-2.12-1.54-4.36-1.54-6.72Zm3.68,.06c0,3.25,.87,5.8,2.62,7.67,1.75,1.87,3.93,2.8,6.57,2.8s4.89-.94,6.62-2.83c1.73-1.89,2.6-4.56,2.6-8.03,0-2.19-.37-4.11-1.11-5.74-.74-1.63-1.83-2.9-3.25-3.8-1.43-.9-3.03-1.35-4.8-1.35-2.52,0-4.69,.87-6.51,2.6-1.82,1.73-2.73,4.63-2.73,8.68Z"/></g></g></g></g></svg>